<svg xmlns="http://www.w3.org/2000/svg" viewBox="0 0 599.38 139.05"><defs><style>.cls-1{font-size:122.55px;font-family:Sansation-Bold, Sansation;font-weight:700;}.cls-1,.cls-2{fill:#ff3100;}</style></defs><title>Recurso 1</title><g id="Capa_2" data-name="Capa 2"><g id="Capa_1-2" data-name="Capa 1"><text class="cls-1" transform="translate(164.62 107.65) scale(1.01 1)">QATAR</text><path class="cls-2" d="M118.43,139c-1.92,0-3.85-.07-5.76,0a1.63,1.63,0,0,1-1.85-1.28,40.19,40.19,0,0,0-8.36-14,43.94,43.94,0,0,0-27.68-14.53A50.63,50.63,0,0,0,68,109c-12,.09-22-4.45-30.39-12.8A39.63,39.63,0,0,1,26.2,72.32c-2.31-18.61,7.51-34.23,22.47-42.08a42,42,0,0,1,16.81-4.51A40.66,40.66,0,0,1,92.26,33.1C101.9,39.82,108,49,109.72,60.54c2.41,15.78-2.82,28.88-15.1,39.21-.93.78-1,1.12.18,1.61a36.51,36.51,0,0,1,9.56,6,1.32,1.32,0,0,0,2.1,0,55,55,0,0,0,17.33-40q-.26-24.57-18.67-41.17A53.52,53.52,0,0,0,74.49,12.59,54.7,54.7,0,0,0,33,24.55,53.39,53.39,0,0,0,13,59.13C8.64,86.63,26.2,113.3,53.53,120.52a55,55,0,0,0,29.82-.16,6.7,6.7,0,0,1,8.53,7.4c-.32,2.34-1.85,3.4-3.93,4a71.3,71.3,0,0,1-22.87,2.84,67,67,0,0,1-34.93-11.3C14.92,113.08,5.43,98.9,1.31,81.22A62.47,62.47,0,0,1,0,68.12,63.89,63.89,0,0,1,14,26.41c6.71-8.56,14.89-15.67,25.11-20.07A71.68,71.68,0,0,1,63.17.16c17.16-1.08,32.61,3.39,46.3,13.68,13.33,10,21.95,23.26,25.18,39.41,4.56,22.78-1,43.12-17.12,60.34-.8.85-1.56,1.73-2.42,2.52-.61.55-.5,1,0,1.51,1,1.14,1.88,2.31,2.8,3.48a41.18,41.18,0,0,1,7.5,16.59c.24,1.05.12,1.4-1,1.35C122.37,139,120.4,139,118.43,139ZM67.36,95.19c15.13.39,28.57-11.67,28.88-27.29A28.14,28.14,0,1,0,40,67.6C39.77,82.24,52.41,94.8,67.36,95.19Z"/></g></g></svg>